<svg width="131" height="25" viewBox="0 0 131 25" fill="none" xmlns="http://www.w3.org/2000/svg">
<path d="M116.008 0H120.937L130.127 25H125.127L122.803 18.7676H114.071L111.782 25H106.782L116.008 0ZM121.923 15.3521L118.472 5.03521L114.881 15.3521H121.923Z" fill="#0066FF"/>
<path d="M93.8501 25V8.59155L87.4417 20.8099H84.7304L78.322 8.59155V25H73.4629V0H78.6741L86.0684 14.2254L93.5332 0H98.7092V25H93.8501Z" fill="#0066FF"/>
<path d="M51.32 0H56.2496L65.4397 25H60.4397L58.1158 18.7676H49.3834L47.0947 25H42.0947L51.32 0ZM57.2355 15.3521L53.7848 5.03521L50.1933 15.3521H57.2355Z" fill="#0066FF"/>
<path d="M15 25V0H24.0845C26.8074 0 29.0844 0.563381 30.9154 1.69014C32.7464 2.79343 34.1196 4.29578 35.0351 6.19718C35.9506 8.07512 36.4083 10.1643 36.4083 12.4648C36.4083 15 35.9036 17.2066 34.8942 19.0845C33.8849 20.9624 32.4529 22.4178 30.5985 23.4507C28.7675 24.4836 26.5962 25 24.0845 25H15ZM31.514 12.4648C31.514 10.8451 31.2206 9.42488 30.6337 8.20422C30.0469 6.96009 29.2018 5.99765 28.0985 5.3169C26.9952 4.61268 25.6572 4.26056 24.0845 4.26056H19.8591V20.7394H24.0845C25.6807 20.7394 27.0304 20.3873 28.1337 19.6831C29.237 18.9554 30.0703 17.9695 30.6337 16.7254C31.2206 15.4577 31.514 14.0376 31.514 12.4648Z" fill="#0066FF"/>
<rect width="8" height="6" rx="1" fill="#0066FF"/>
<rect y="19" width="8" height="6" rx="1" fill="#0066FF"/>
<rect x="24" y="11" width="3" height="3" fill="#0066FF"/>
</svg>
