<svg width="117" height="25" viewBox="0 0 117 25" fill="none" xmlns="http://www.w3.org/2000/svg">
<path fill-rule="evenodd" clip-rule="evenodd" d="M12.5 0H25V8.25671V16.5135H12.5V24.7702H0V16.5135V8.25671H12.5V0Z" fill="#B642F0"/>
<path d="M106.143 25C105.07 25 104.095 24.8147 103.218 24.4441C102.352 24.0735 101.665 23.5282 101.157 22.8081C100.649 22.0881 100.396 21.2039 100.396 20.1557C100.396 19.1074 100.626 18.2444 101.088 17.5667C101.561 16.889 102.202 16.3596 103.01 15.9784C103.818 15.5866 104.73 15.2954 105.745 15.1048C106.426 14.9778 107.124 14.8719 107.84 14.7872C108.567 14.7025 109.248 14.6336 109.883 14.5807C110.529 14.5277 111.078 14.4854 111.528 14.4536V13.9771C111.528 12.8759 111.326 12.1029 110.922 11.6582C110.529 11.2135 109.837 10.9911 108.844 10.9911C108.209 10.9911 107.673 11.0705 107.234 11.2294C106.807 11.3882 106.484 11.6741 106.265 12.087C106.057 12.5 105.959 13.0877 105.97 13.8501H100.88C100.742 12.3253 101.001 11.0705 101.659 10.0858C102.317 9.09043 103.281 8.35452 104.551 7.87802C105.82 7.39094 107.309 7.1474 109.017 7.1474C110.01 7.1474 110.974 7.24799 111.909 7.44918C112.843 7.63978 113.68 7.97332 114.419 8.44982C115.158 8.91572 115.741 9.55634 116.168 10.3717C116.606 11.187 116.825 12.2194 116.825 13.4689V24.8094H111.493L111.528 20.7592C111.32 21.924 110.801 22.9246 109.97 23.7611C109.15 24.587 107.875 25 106.143 25ZM107.927 21.7281C108.492 21.7281 109.029 21.6328 109.537 21.4422C110.056 21.241 110.495 20.971 110.853 20.6322C111.21 20.2827 111.435 19.8962 111.528 19.4727V16.7408C111.066 16.8043 110.599 16.8732 110.125 16.9473C109.652 17.0214 109.237 17.1008 108.879 17.1855C107.725 17.4185 106.934 17.7414 106.507 18.1544C106.08 18.5568 105.866 19.0862 105.866 19.7427C105.866 20.1557 105.941 20.5104 106.091 20.8069C106.253 21.1034 106.49 21.331 106.801 21.4898C107.113 21.6487 107.488 21.7281 107.927 21.7281Z" fill="black"/>
<path d="M86.8936 24.8094V7.48093H91.7065L92.1567 14.263L91.845 13.2306C91.9489 12.32 92.1394 11.4941 92.4164 10.7528C92.6934 10.001 93.0512 9.35513 93.4898 8.81511C93.9284 8.27508 94.4535 7.85683 95.0652 7.56034C95.6885 7.26386 96.3983 7.11562 97.1947 7.11562C97.4256 7.11562 97.6564 7.1262 97.8872 7.14738C98.1296 7.16856 98.3432 7.20562 98.5278 7.25857V12.3888C98.1354 12.2935 97.7545 12.23 97.3852 12.1982C97.0274 12.1559 96.6696 12.1347 96.3118 12.1347C95.677 12.1347 95.0999 12.1876 94.5805 12.2935C94.0726 12.3994 93.6283 12.5635 93.2474 12.7859C92.8665 12.9977 92.5491 13.273 92.2952 13.6118V24.8094H86.8936Z" fill="black"/>
<path d="M71.991 25C70.9176 25 69.9424 24.8147 69.0652 24.4441C68.1995 24.0735 67.5128 23.5282 67.0049 22.8081C66.4971 22.0881 66.2432 21.2039 66.2432 20.1557C66.2432 19.1074 66.474 18.2444 66.9357 17.5667C67.4089 16.889 68.0495 16.3596 68.8574 15.9784C69.6653 15.5866 70.5772 15.2954 71.5929 15.1048C72.2738 14.9778 72.9721 14.8719 73.6877 14.7872C74.4149 14.7025 75.0958 14.6336 75.7306 14.5807C76.377 14.5277 76.9252 14.4854 77.3754 14.4536V13.9771C77.3754 12.8759 77.1734 12.1029 76.7694 11.6582C76.377 11.2135 75.6845 10.9911 74.6919 10.9911C74.0571 10.9911 73.5204 11.0705 73.0818 11.2294C72.6547 11.3882 72.3315 11.6741 72.1122 12.087C71.9045 12.5 71.8064 13.0877 71.8179 13.8501H66.7279C66.5894 12.3253 66.8491 11.0705 67.507 10.0858C68.1649 9.09043 69.1286 8.35452 70.3983 7.87802C71.6679 7.39094 73.1568 7.1474 74.865 7.1474C75.8576 7.1474 76.8213 7.24799 77.7562 7.44918C78.6911 7.63978 79.5279 7.97332 80.2666 8.44982C81.0053 8.91572 81.5882 9.55634 82.0152 10.3717C82.4538 11.187 82.6731 12.2194 82.6731 13.4689V24.8094H77.3407L77.3754 20.7592C77.1676 21.924 76.6482 22.9246 75.8172 23.7611C74.9977 24.587 73.7223 25 71.991 25ZM73.7743 21.7281C74.3398 21.7281 74.8765 21.6328 75.3844 21.4422C75.9038 21.241 76.3424 20.971 76.7002 20.6322C77.058 20.2827 77.283 19.8962 77.3754 19.4727V16.7408C76.9137 16.8043 76.4462 16.8732 75.973 16.9473C75.4998 17.0214 75.0843 17.1008 74.7265 17.1855C73.5723 17.4185 72.7817 17.7414 72.3546 18.1544C71.9276 18.5568 71.714 19.0862 71.714 19.7427C71.714 20.1557 71.7891 20.5104 71.9391 20.8069C72.1007 21.1034 72.3373 21.331 72.6489 21.4898C72.9606 21.6487 73.3357 21.7281 73.7743 21.7281Z" fill="black"/>
<path d="M57.3574 24.8094V0H62.759V24.8094H57.3574Z" fill="black"/>
<path d="M38 24.8094V1.71538H53.4258V6.27383H41.7396L43.4189 5.09848V11.7217L41.7396 10.7211H52.2658V15.2637H41.9127L43.4189 14.2789V21.4104L41.7396 20.2192H53.7374V24.8094H38Z" fill="black"/>
</svg>
