<svg width="131" height="25" viewBox="0 0 131 25" fill="none" xmlns="http://www.w3.org/2000/svg">
<path d="M18.4717 0.0129162C24.2934 0.297507 28.7827 5.23265 28.4991 11.0354C28.2151 16.8377 23.2666 21.3109 17.4454 21.0266C11.6237 20.742 7.13434 15.8068 7.41801 10.0041C7.70177 4.20164 12.6503 -0.271436 18.4717 0.0129162ZM18.3682 2.36643C13.8522 2.14567 10.0109 5.64308 9.7891 10.178C9.56741 14.7129 13.0494 18.5685 17.5655 18.7893C22.0813 19.0099 25.9218 15.5125 26.1436 10.9778C26.3653 6.44288 22.8841 2.58731 18.3682 2.36643Z" fill="#5F00FF"/>
<path d="M6.75299 11.1517C-12.0584 32.8477 14.1696 22.8267 16.365 21.8133C8.58767 20.9733 8.23941 16.4076 8.13323 16.9208C8.52255 21.1856 -3.88302 28.3679 6.94753 13.3435C6.69831 12.6235 6.63957 11.9943 6.75299 11.1517Z" fill="#5F00FF"/>
<path d="M27.351 16.8146C37.7211 21.6989 31.5605 23.6211 20.6357 24.5126C38.8868 24.5126 40.7295 22.0528 29.0498 12.4613C28.8005 14.0172 28.4641 15.5649 27.351 16.8146Z" fill="#5F00FF"/>
<path d="M127.024 20.4479H124.454C124.388 20.4479 124.354 20.4108 124.354 20.3366V7.34402H121.395C121.321 7.34402 121.284 7.30694 121.284 7.23278L121.306 4.68543C121.306 4.6261 121.336 4.59644 121.395 4.59644H130.05C130.131 4.59644 130.172 4.6261 130.172 4.68543V7.23278C130.172 7.30694 130.142 7.34402 130.083 7.34402H127.091L127.113 20.3366C127.113 20.4108 127.083 20.4479 127.024 20.4479Z" fill="#5F00FF"/>
<path d="M114.074 20.6703C113.266 20.6703 112.52 20.4627 111.838 20.0474C111.163 19.6321 110.622 19.0796 110.214 18.3899C109.814 17.6929 109.613 16.929 109.613 16.0984V15.0528C109.613 14.9712 109.65 14.9304 109.725 14.9304H112.283C112.342 14.9304 112.372 14.9712 112.372 15.0528V16.0984C112.372 16.5953 112.539 17.0254 112.873 17.3888C113.206 17.7448 113.607 17.9227 114.074 17.9227C114.549 17.9227 114.953 17.7411 115.286 17.3777C115.62 17.0069 115.787 16.5805 115.787 16.0984C115.787 15.5422 115.424 15.0565 114.697 14.6412C114.578 14.5671 114.422 14.4781 114.23 14.3742C114.044 14.263 113.822 14.1369 113.562 13.996C113.303 13.8551 113.051 13.7179 112.806 13.5845C112.561 13.4436 112.324 13.3101 112.094 13.184C111.263 12.6945 110.644 12.0827 110.236 11.3486C109.836 10.607 109.636 9.7764 109.636 8.85683C109.636 8.01142 109.843 7.24759 110.258 6.56532C110.674 5.89048 111.215 5.35654 111.883 4.96349C112.557 4.56304 113.288 4.36281 114.074 4.36281C114.882 4.36281 115.624 4.56304 116.299 4.96349C116.974 5.37137 117.511 5.91273 117.912 6.58757C118.32 7.26242 118.523 8.01884 118.523 8.85683V10.7256C118.523 10.785 118.494 10.8146 118.434 10.8146H115.876C115.817 10.8146 115.787 10.785 115.787 10.7256L115.765 8.85683C115.765 8.32289 115.598 7.88906 115.264 7.55534C114.93 7.22163 114.534 7.05477 114.074 7.05477C113.607 7.05477 113.206 7.23275 112.873 7.58872C112.539 7.94468 112.372 8.36738 112.372 8.85683C112.372 9.35369 112.476 9.76898 112.683 10.1027C112.899 10.4364 113.288 10.7553 113.851 11.0593C113.911 11.089 114.048 11.1632 114.263 11.2818C114.478 11.4005 114.715 11.534 114.975 11.6823C115.242 11.8232 115.483 11.953 115.698 12.0716C115.913 12.1829 116.043 12.2496 116.087 12.2718C116.844 12.6945 117.441 13.2137 117.878 13.8292C118.323 14.4447 118.546 15.2011 118.546 16.0984C118.546 16.9661 118.345 17.7448 117.945 18.4344C117.537 19.1241 116.996 19.6692 116.321 20.0696C115.646 20.4701 114.897 20.6703 114.074 20.6703Z" fill="#5F00FF"/>
<path d="M105.605 20.4479H103.024C102.95 20.4479 102.913 20.4108 102.913 20.3366L102.935 4.68543C102.935 4.6261 102.965 4.59644 103.024 4.59644H105.583C105.642 4.59644 105.672 4.6261 105.672 4.68543L105.694 20.3366C105.694 20.4108 105.664 20.4479 105.605 20.4479Z" fill="#5F00FF"/>
<path d="M92.0867 20.4479H89.506C89.4467 20.4479 89.417 20.4108 89.417 20.3366L89.4615 4.68543C89.4615 4.6261 89.4912 4.59644 89.5505 4.59644H94.1557C94.9789 4.59644 95.7353 4.79666 96.425 5.19712C97.1147 5.59758 97.6634 6.13523 98.0713 6.81008C98.4866 7.48492 98.6942 8.24876 98.6942 9.10158C98.6942 9.65777 98.609 10.1621 98.4384 10.6144C98.2678 11.0668 98.0676 11.4487 97.8377 11.7602C97.6152 12.0716 97.4113 12.3015 97.2259 12.4499C98.0491 13.362 98.4606 14.4336 98.4606 15.6646L98.4829 20.3366C98.4829 20.4108 98.4458 20.4479 98.3716 20.4479H95.7909C95.7316 20.4479 95.7019 20.4256 95.7019 20.3811V15.6646C95.7019 15.1159 95.5091 14.6412 95.1235 14.2408C94.7379 13.8403 94.2633 13.6401 93.6997 13.6401H92.1979L92.1757 20.3366C92.1757 20.4108 92.146 20.4479 92.0867 20.4479ZM94.1557 7.32177H92.1979V10.9036H94.1557C94.6229 10.9036 95.0382 10.7294 95.4016 10.3808C95.7724 10.0323 95.9578 9.60586 95.9578 9.10158C95.9578 8.61955 95.7798 8.20426 95.4238 7.85571C95.0679 7.49975 94.6452 7.32177 94.1557 7.32177Z" fill="#5F00FF"/>
<path d="M77.4443 20.4479H74.6856C74.6188 20.4479 74.5818 20.4108 74.5743 20.3366L71.8824 4.68543C71.8675 4.6261 71.8898 4.59644 71.9491 4.59644H74.5076C74.5669 4.59644 74.604 4.6261 74.6188 4.68543L76.0761 14.975L77.5778 4.68543C77.5926 4.6261 77.6371 4.59644 77.7112 4.59644H79.7692C79.8285 4.59644 79.8656 4.6261 79.8804 4.68543L81.3599 14.975L82.8393 4.68543C82.8542 4.6261 82.8912 4.59644 82.9506 4.59644H85.4868C85.5609 4.59644 85.5906 4.6261 85.5758 4.68543L82.8616 20.3366C82.8542 20.3663 82.8319 20.3923 82.7948 20.4145L82.7503 20.4479H79.9916C79.9471 20.4479 79.9101 20.4108 79.8804 20.3366L78.7124 12.1606L77.5555 20.3366C77.5481 20.4108 77.511 20.4479 77.4443 20.4479Z" fill="#5F00FF"/>
<path d="M65.8161 20.4479H63.2465C63.1797 20.4479 63.1463 20.4108 63.1463 20.3366V7.34402H60.1874C60.1133 7.34402 60.0762 7.30694 60.0762 7.23278L60.0984 4.68543C60.0984 4.6261 60.1281 4.59644 60.1874 4.59644H68.8417C68.9233 4.59644 68.9641 4.6261 68.9641 4.68543V7.23278C68.9641 7.30694 68.9344 7.34402 68.8751 7.34402H65.8828L65.905 20.3366C65.905 20.4108 65.8754 20.4479 65.8161 20.4479Z" fill="#5F00FF"/>
<path d="M56.358 20.4479H53.7773C53.7031 20.4479 53.666 20.4108 53.666 20.3366L53.6883 4.68543C53.6883 4.6261 53.7179 4.59644 53.7773 4.59644H56.3357C56.3951 4.59644 56.4247 4.6261 56.4247 4.68543L56.447 20.3366C56.447 20.4108 56.4173 20.4479 56.358 20.4479Z" fill="#5F00FF"/>
<path d="M44.241 20.4479H41.6825C41.6084 20.4479 41.5713 20.4108 41.5713 20.3366L41.6158 4.68543C41.6158 4.6261 41.6454 4.59644 41.7048 4.59644H49.002C49.0761 4.59644 49.1132 4.6261 49.1132 4.68543V7.25503C49.1132 7.31436 49.0836 7.34402 49.0242 7.34402H44.3522V10.8814H49.0242C49.0836 10.8814 49.1132 10.9185 49.1132 10.9926L49.1355 13.5734C49.1355 13.6327 49.0984 13.6623 49.0242 13.6623H44.3522V20.3366C44.3522 20.4108 44.3152 20.4479 44.241 20.4479Z" fill="#5F00FF"/>
</svg>
