<svg width="146" height="25" viewBox="0 0 146 25" fill="none" xmlns="http://www.w3.org/2000/svg">
<path d="M13.9305 6.15462C18.3211 6.36925 21.7069 10.0907 21.493 14.4671C21.279 18.8434 17.5467 22.2169 13.1561 22.0023C8.76545 21.7876 5.37966 18.0661 5.59359 13.6898C5.80752 9.31347 9.53997 5.94012 13.9305 6.15462ZM13.8524 7.92903C10.4465 7.76254 7.54996 10.4005 7.38265 13.8206C7.21545 17.2409 9.84095 20.1483 13.2469 20.3148C16.6527 20.4813 19.5493 17.8442 19.7166 14.4241C19.8838 11.0039 17.2583 8.09553 13.8524 7.92903Z" fill="#FFA353"/>
<path d="M5.09307 14.5555C-9.09435 30.9185 10.6866 23.3607 12.3424 22.5964C6.47677 21.9629 6.21411 18.5195 6.13403 18.9065C6.42766 22.1231 -2.92855 27.5399 5.23978 16.2086C5.05182 15.6655 5.00752 15.191 5.09307 14.5555Z" fill="#FFA353"/>
<path d="M14.9731 5.82087C32.6608 -6.67605 23.1809 12.2591 22.2564 13.831C22.207 7.93148 18.8065 7.32904 19.1996 7.28769C22.3712 7.89847 28.6881 -0.875215 16.6035 6.13061C16.0817 5.88978 15.6139 5.7987 14.9731 5.82087Z" fill="#FFA353"/>
<path d="M12.1503 5.05627C-5.79702 -7.06502 4.07991 11.6661 5.03741 13.2181C4.96245 7.3189 8.34948 6.64492 7.95561 6.61186C4.79756 7.28937 -1.70291 -1.34921 10.5267 5.40031C11.0433 5.14854 11.5091 5.04762 12.1503 5.05627Z" fill="#FFA353"/>
<path d="M22.0067 13.816C36.5359 29.8763 16.6 22.7372 14.9285 22.0079C20.7794 21.2509 20.9695 17.8027 21.0577 18.188C20.8319 21.41 30.3002 26.6284 21.8949 15.4718C22.0713 14.9249 22.1056 14.4496 22.0067 13.816Z" fill="#FFA353"/>
<path d="M145.873 18.3047H140.512C140.469 18.3047 140.447 18.2777 140.447 18.2237L140.463 6.8293C140.463 6.78611 140.485 6.76451 140.528 6.76451H145.857C145.9 6.76451 145.922 6.79151 145.922 6.84549V8.70002C145.922 8.74321 145.9 8.76481 145.857 8.76481H142.456V11.3563H145.857C145.9 11.3563 145.922 11.3779 145.922 11.4211L145.938 13.2999C145.938 13.3431 145.916 13.3647 145.873 13.3647H142.456V16.2639H145.873C145.916 16.2639 145.938 16.2909 145.938 16.3449V18.2399C145.938 18.2831 145.916 18.3047 145.873 18.3047Z" fill="#FFA353"/>
<path d="M130.165 18.3047H128.286C128.243 18.3047 128.222 18.2777 128.222 18.2237L128.254 6.8293C128.254 6.78611 128.276 6.76451 128.319 6.76451H130.343C130.387 6.76451 130.424 6.78611 130.457 6.8293L131.971 9.01586L133.478 6.8293C133.51 6.78611 133.55 6.76451 133.599 6.76451H135.632C135.68 6.76451 135.705 6.78611 135.705 6.8293L135.737 18.2237C135.737 18.2777 135.715 18.3047 135.672 18.3047H133.793C133.75 18.3047 133.729 18.2777 133.729 18.2237L133.712 9.76091L131.971 12.2876L130.246 9.76091L130.23 18.2237C130.23 18.2777 130.208 18.3047 130.165 18.3047Z" fill="#FFA353"/>
<path d="M117.268 18.2237L119.325 6.8293C119.335 6.78611 119.362 6.76451 119.406 6.76451H121.811C121.854 6.76451 121.881 6.78611 121.892 6.8293L123.868 18.2237C123.873 18.2777 123.852 18.3047 123.803 18.3047H121.965C121.911 18.3047 121.881 18.2777 121.876 18.2237L121.697 17.0089H119.438L119.26 18.2237C119.254 18.2777 119.227 18.3047 119.179 18.3047H117.332C117.289 18.3047 117.268 18.2777 117.268 18.2237ZM120.685 10.5788L120.588 9.96337L120.515 10.5788L119.77 15.2354H121.365L120.685 10.5788Z" fill="#FFA353"/>
<path d="M110.079 18.4667C109.48 18.4667 108.94 18.3182 108.459 18.0213C107.973 17.7243 107.582 17.3248 107.285 16.8227C106.993 16.3206 106.848 15.7591 106.848 15.1383V9.88241C106.848 9.27773 106.996 8.72704 107.293 8.23034C107.585 7.72825 107.976 7.32873 108.467 7.03179C108.959 6.72945 109.496 6.57828 110.079 6.57828C110.689 6.57828 111.24 6.72405 111.731 7.01559C112.222 7.31253 112.611 7.70935 112.897 8.20605C113.189 8.70275 113.334 9.26154 113.334 9.88241V10.6437C113.334 10.6868 113.307 10.7084 113.253 10.7084H111.391C111.348 10.7084 111.326 10.6868 111.326 10.6437V10.012C111.326 9.59087 111.207 9.24264 110.97 8.9673C110.732 8.69195 110.435 8.55428 110.079 8.55428C109.76 8.55428 109.477 8.68655 109.229 8.9511C108.98 9.21565 108.856 9.52608 108.856 9.88241V15.1383C108.856 15.5 108.978 15.8131 109.22 16.0777C109.463 16.3368 109.75 16.4664 110.079 16.4664C110.435 16.4664 110.732 16.3395 110.97 16.0858C111.207 15.8266 111.326 15.5108 111.326 15.1383V14.3203H110.168C110.109 14.3203 110.079 14.2933 110.079 14.2393V12.3848C110.079 12.3308 110.109 12.3038 110.168 12.3038H113.27C113.313 12.3038 113.334 12.3308 113.334 12.3848V15.1383C113.334 15.7591 113.189 16.3206 112.897 16.8227C112.6 17.3248 112.209 17.7243 111.723 18.0213C111.237 18.3182 110.689 18.4667 110.079 18.4667Z" fill="#FFA353"/>
<path d="M99.3197 18.4668C98.7312 18.4668 98.1886 18.3157 97.6919 18.0133C97.2006 17.711 96.8065 17.3088 96.5096 16.8067C96.218 16.2992 96.0723 15.7431 96.0723 15.1384V14.3772C96.0723 14.3178 96.0993 14.2881 96.1532 14.2881H98.0159C98.0591 14.2881 98.0807 14.3178 98.0807 14.3772V15.1384C98.0807 15.5001 98.2021 15.8133 98.4451 16.0778C98.688 16.337 98.9796 16.4665 99.3197 16.4665C99.6652 16.4665 99.9595 16.3343 100.202 16.0697C100.445 15.7998 100.567 15.4893 100.567 15.1384C100.567 14.7335 100.302 14.3799 99.7732 14.0775C99.6868 14.0235 99.5734 13.9588 99.4331 13.8832C99.2981 13.8022 99.1361 13.7104 98.9472 13.6078C98.7582 13.5052 98.5747 13.4054 98.3965 13.3082C98.2183 13.2056 98.0456 13.1084 97.8782 13.0166C97.2735 12.6603 96.8227 12.2149 96.5258 11.6804C96.2342 11.1405 96.0885 10.5358 96.0885 9.86638C96.0885 9.2509 96.2396 8.69481 96.542 8.19811C96.8443 7.70681 97.2384 7.31809 97.7243 7.03195C98.2156 6.74041 98.7474 6.59464 99.3197 6.59464C99.9082 6.59464 100.448 6.74041 100.939 7.03195C101.431 7.32889 101.822 7.72301 102.114 8.21431C102.411 8.70561 102.559 9.2563 102.559 9.86638V11.2269C102.559 11.2701 102.537 11.2917 102.494 11.2917H100.632C100.588 11.2917 100.567 11.2701 100.567 11.2269L100.551 9.86638C100.551 9.47765 100.429 9.16182 100.186 8.91887C99.9433 8.67592 99.6544 8.55444 99.3197 8.55444C98.9796 8.55444 98.688 8.68401 98.4451 8.94316C98.2021 9.20231 98.0807 9.51005 98.0807 9.86638C98.0807 10.2281 98.1562 10.5304 98.3074 10.7734C98.464 11.0163 98.7474 11.2485 99.1577 11.4699C99.2009 11.4914 99.3008 11.5454 99.4574 11.6318C99.6139 11.7182 99.7867 11.8154 99.9757 11.9234C100.17 12.0259 100.345 12.1204 100.502 12.2068C100.659 12.2878 100.753 12.3364 100.785 12.3526C101.336 12.6603 101.771 13.0382 102.089 13.4863C102.413 13.9345 102.575 14.4851 102.575 15.1384C102.575 15.7701 102.429 16.337 102.138 16.8391C101.841 17.3412 101.447 17.738 100.956 18.0295C100.464 18.3211 99.919 18.4668 99.3197 18.4668Z" fill="#FFA353"/>
<path d="M88.6097 18.4667C88.0267 18.4667 87.4868 18.3155 86.9901 18.0131C86.4934 17.7108 86.0966 17.3059 85.7996 16.7984C85.5081 16.2855 85.3623 15.7267 85.3623 15.122L85.3947 6.8293C85.3947 6.78611 85.4163 6.76451 85.4595 6.76451H87.3221C87.3653 6.76451 87.3869 6.78611 87.3869 6.8293V15.122C87.3869 15.4946 87.5057 15.8131 87.7432 16.0776C87.9808 16.3368 88.2696 16.4664 88.6097 16.4664C88.9661 16.4664 89.263 16.3368 89.5006 16.0776C89.7381 15.8131 89.8569 15.4946 89.8569 15.122V6.8293C89.8569 6.78611 89.8785 6.76451 89.9217 6.76451H91.7843C91.8275 6.76451 91.8491 6.78611 91.8491 6.8293L91.8815 15.122C91.8815 15.7321 91.7357 16.2936 91.4442 16.8065C91.1472 17.314 90.7531 17.7189 90.2618 18.0212C89.7705 18.3182 89.2198 18.4667 88.6097 18.4667Z" fill="#FFA353"/>
<path d="M79.1368 18.3047H77.266C77.2174 18.3047 77.1932 18.2777 77.1932 18.2237V8.76481H75.039C74.985 8.76481 74.958 8.73781 74.958 8.68382L74.9742 6.8293C74.9742 6.78611 74.9958 6.76451 75.039 6.76451H81.3395C81.3989 6.76451 81.4286 6.78611 81.4286 6.8293V8.68382C81.4286 8.73781 81.407 8.76481 81.3638 8.76481H79.1853L79.2015 18.2237C79.2015 18.2777 79.1799 18.3047 79.1368 18.3047Z" fill="#FFA353"/>
<path d="M67.8197 18.4667C67.2204 18.4667 66.6724 18.3155 66.1757 18.0132C65.6844 17.7108 65.293 17.3059 65.0015 16.7984C64.7153 16.2855 64.5723 15.7159 64.5723 15.0897L64.5885 9.91481C64.5885 9.29933 64.7288 8.74324 65.0096 8.24654C65.2903 7.74444 65.6763 7.34222 66.1676 7.03988C66.6643 6.73215 67.215 6.57828 67.8197 6.57828C68.4352 6.57828 68.9832 6.72675 69.4637 7.02369C69.9496 7.32063 70.3356 7.72285 70.6217 8.23034C70.9133 8.73244 71.059 9.29393 71.059 9.91481V10.6761C71.059 10.7192 71.0374 10.7408 70.9943 10.7408H69.1316C69.0884 10.7408 69.0668 10.7192 69.0668 10.6761V9.91481C69.0668 9.54768 68.9481 9.23184 68.7105 8.9673C68.473 8.70275 68.176 8.57048 67.8197 8.57048C67.4256 8.57048 67.1232 8.70545 66.9127 8.97539C66.7021 9.24534 66.5969 9.55848 66.5969 9.91481V15.0897C66.5969 15.4946 66.7156 15.8266 66.9532 16.0858C67.1907 16.3395 67.4796 16.4664 67.8197 16.4664C68.176 16.4664 68.473 16.326 68.7105 16.0453C68.9481 15.7591 69.0668 15.4406 69.0668 15.0897V14.3203C69.0668 14.2771 69.0884 14.2555 69.1316 14.2555H71.0105C71.0536 14.2555 71.0752 14.2771 71.0752 14.3203V15.0897C71.0752 15.7105 70.9295 16.2774 70.6379 16.7903C70.341 17.2978 69.9496 17.7054 69.4637 18.0132C68.9778 18.3155 68.4298 18.4667 67.8197 18.4667Z" fill="#FFA353"/>
<path d="M54.1523 18.2237L56.2093 6.8293C56.2201 6.78611 56.2471 6.76451 56.2903 6.76451H58.6955C58.7387 6.76451 58.7657 6.78611 58.7765 6.8293L60.7525 18.2237C60.7579 18.2777 60.7363 18.3047 60.6877 18.3047H58.8494C58.7954 18.3047 58.7657 18.2777 58.7603 18.2237L58.5821 17.0089H56.3227L56.1445 18.2237C56.1391 18.2777 56.1121 18.3047 56.0636 18.3047H54.2171C54.1739 18.3047 54.1523 18.2777 54.1523 18.2237ZM57.5698 10.5788L57.4727 9.96337L57.3998 10.5788L56.6547 15.2354H58.2501L57.5698 10.5788Z" fill="#FFA353"/>
<path d="M49.8546 18.3047H44.4935C44.4503 18.3047 44.4287 18.2777 44.4287 18.2237L44.4449 6.8293C44.4449 6.78611 44.4665 6.76451 44.5097 6.76451H49.8384C49.8816 6.76451 49.9032 6.79151 49.9032 6.84549V8.70002C49.9032 8.74321 49.8816 8.76481 49.8384 8.76481H46.4371V11.3563H49.8384C49.8816 11.3563 49.9032 11.3779 49.9032 11.4211L49.9194 13.2999C49.9194 13.3431 49.8978 13.3647 49.8546 13.3647H46.4371V16.2639H49.8546C49.8978 16.2639 49.9194 16.2909 49.9194 16.3449V18.2399C49.9194 18.2831 49.8978 18.3047 49.8546 18.3047Z" fill="#FFA353"/>
<path d="M35.0549 18.3047H33.1761C33.1329 18.3047 33.1113 18.2777 33.1113 18.2237L33.1437 6.8293C33.1437 6.78611 33.1653 6.76451 33.2085 6.76451H36.5612C37.1605 6.76451 37.7112 6.91028 38.2133 7.20182C38.7154 7.49336 39.1149 7.88479 39.4118 8.37609C39.7142 8.86739 39.8653 9.42348 39.8653 10.0444C39.8653 10.4493 39.8033 10.8164 39.6791 11.1457C39.5549 11.4751 39.4091 11.7531 39.2418 11.9799C39.0798 12.2066 38.9313 12.374 38.7964 12.482C39.3956 13.146 39.6953 13.9262 39.6953 14.8224L39.7115 18.2237C39.7115 18.2777 39.6845 18.3047 39.6305 18.3047H37.7517C37.7085 18.3047 37.6869 18.2885 37.6869 18.2561V14.8224C37.6869 14.4229 37.5465 14.0773 37.2658 13.7858C36.985 13.4943 36.6395 13.3485 36.2292 13.3485H35.1359L35.1197 18.2237C35.1197 18.2777 35.0981 18.3047 35.0549 18.3047ZM36.5612 8.74861H35.1359V11.3563H36.5612C36.9014 11.3563 37.2037 11.2294 37.4682 10.9757C37.7382 10.7219 37.8732 10.4115 37.8732 10.0444C37.8732 9.69342 37.7436 9.39108 37.4844 9.13733C37.2253 8.87819 36.9176 8.74861 36.5612 8.74861Z" fill="#FFA353"/>
</svg>
