<svg width="152" height="40" viewBox="0 0 152 40" fill="none" xmlns="http://www.w3.org/2000/svg">
<path d="M63.148 14.2173C62.4077 13.7509 61.6771 13.3816 60.9562 13.1095C60.2354 12.8375 59.5535 12.6431 58.9106 12.5265C58.2677 12.4099 57.6832 12.3516 57.1572 12.3516C56.1441 12.3516 55.3356 12.5459 54.7316 12.9346C54.1277 13.3233 53.8257 13.8869 53.8257 14.6254C53.8257 15.2862 54.0205 15.8303 54.4102 16.2579C54.8193 16.666 55.3453 17.0061 55.9882 17.2782C56.6506 17.5308 57.3715 17.7737 58.1508 18.007C58.9496 18.2402 59.7386 18.5025 60.5179 18.794C61.2972 19.0661 62.018 19.4257 62.6804 19.8726C63.3428 20.3196 63.8689 20.8929 64.2585 21.5926C64.6482 22.2728 64.843 23.1376 64.843 24.187C64.843 25.3919 64.5118 26.4414 63.8494 27.3354C63.187 28.2099 62.2713 28.8901 61.1024 29.376C59.9529 29.8618 58.6281 30.1047 57.128 30.1047C56.0564 30.1047 55.0141 29.9687 54.001 29.6966C52.988 29.4051 52.0333 29.0164 51.1371 28.5306C50.2604 28.0447 49.4714 27.4811 48.77 26.8398L50.2604 24.0121C50.9618 24.6534 51.7021 25.1976 52.4814 25.6446C53.2802 26.0916 54.079 26.4317 54.8777 26.6649C55.696 26.8981 56.4656 27.0147 57.1864 27.0147C58.3943 27.0147 59.3295 26.7815 59.9919 26.3151C60.6738 25.8486 61.0147 25.1976 61.0147 24.3619C61.0147 23.6817 60.8101 23.1376 60.401 22.7295C60.0114 22.3019 59.4853 21.9521 58.8229 21.68C58.18 21.4079 57.4592 21.165 56.6604 20.9512C55.8811 20.7375 55.0921 20.4945 54.2933 20.2225C53.514 19.9309 52.7931 19.5714 52.1307 19.1439C51.4878 18.7163 50.9618 18.1624 50.5527 17.4822C50.163 16.802 49.9682 15.9372 49.9682 14.8878C49.9682 13.7412 50.2799 12.75 50.9033 11.9143C51.5268 11.0592 52.3937 10.3985 53.5042 9.93205C54.6342 9.46563 55.9395 9.23242 57.4202 9.23242C58.745 9.23242 60.0308 9.42676 61.2777 9.81545C62.5246 10.2041 63.6253 10.7094 64.58 11.3313L63.148 14.2173Z" fill="black"/>
<path d="M78.0249 9.29073C79.5445 9.29073 80.957 9.55309 82.2623 10.0778C83.5871 10.6025 84.7366 11.341 85.7107 12.2933C86.7043 13.2456 87.4738 14.3533 88.0193 15.6166C88.5843 16.8603 88.8668 18.211 88.8668 19.6686C88.8668 21.1261 88.5843 22.4962 88.0193 23.7789C87.4738 25.0421 86.7043 26.1499 85.7107 27.1022C84.7366 28.0544 83.5871 28.8026 82.2623 29.3468C80.957 29.8715 79.5445 30.1339 78.0249 30.1339C76.5052 30.1339 75.083 29.8715 73.7582 29.3468C72.4529 28.8026 71.3034 28.0544 70.3098 27.1022C69.3357 26.1499 68.5662 25.0421 68.0012 23.7789C67.4557 22.4962 67.1829 21.1261 67.1829 19.6686C67.1829 18.211 67.4557 16.8506 68.0012 15.5874C68.5662 14.3242 69.3357 13.2261 70.3098 12.2933C71.3034 11.341 72.4529 10.6025 73.7582 10.0778C75.083 9.55309 76.5052 9.29073 78.0249 9.29073ZM78.0541 12.2059C77.041 12.2059 76.0864 12.4002 75.1902 12.7889C74.3135 13.1581 73.5342 13.6828 72.8523 14.363C72.1704 15.0432 71.6346 15.84 71.245 16.7534C70.8748 17.6474 70.6898 18.6191 70.6898 19.6686C70.6898 20.718 70.8846 21.6994 71.2742 22.6129C71.6639 23.5263 72.1996 24.3328 72.8815 25.0324C73.5634 25.7126 74.3427 26.247 75.2194 26.6357C76.1156 27.0244 77.0605 27.2188 78.0541 27.2188C79.0477 27.2188 79.9829 27.0244 80.8596 26.6357C81.7557 26.247 82.535 25.7126 83.1974 25.0324C83.8598 24.3328 84.3761 23.5263 84.7463 22.6129C85.1359 21.6994 85.3308 20.718 85.3308 19.6686C85.3308 18.6191 85.1359 17.6474 84.7463 16.7534C84.3761 15.84 83.8598 15.0432 83.1974 14.363C82.535 13.6828 81.7557 13.1581 80.8596 12.7889C79.9829 12.4002 79.0477 12.2059 78.0541 12.2059Z" fill="black"/>
<path d="M92.5364 9.49478H95.9264L107.762 25.6737L106.885 25.9653V9.49478H110.275V29.9007H106.885L95.0789 13.7509L95.9848 13.4594V29.9007H92.5364V9.49478Z" fill="black"/>
<path d="M118.721 21.5343C118.721 23.3028 119.208 24.6923 120.182 25.7029C121.156 26.7135 122.471 27.2188 124.127 27.2188C125.763 27.2188 127.059 26.7232 128.014 25.732C128.968 24.7215 129.446 23.3222 129.446 21.5343V9.49478H132.894V21.5343C132.894 23.3028 132.543 24.8381 131.842 26.1402C131.141 27.4228 130.127 28.414 128.803 29.1136C127.497 29.7938 125.939 30.1339 124.127 30.1339C122.296 30.1339 120.717 29.7938 119.393 29.1136C118.068 28.414 117.045 27.4228 116.324 26.1402C115.623 24.8381 115.272 23.3028 115.272 21.5343V9.49478H118.721V21.5343Z" fill="black"/>
<path d="M150.305 14.2173C149.565 13.7509 148.834 13.3816 148.113 13.1095C147.392 12.8375 146.711 12.6431 146.068 12.5265C145.425 12.4099 144.84 12.3516 144.314 12.3516C143.301 12.3516 142.493 12.5459 141.889 12.9346C141.285 13.3233 140.983 13.8869 140.983 14.6254C140.983 15.2862 141.178 15.8303 141.567 16.2579C141.976 16.666 142.502 17.0061 143.145 17.2782C143.808 17.5308 144.529 17.7737 145.308 18.007C146.107 18.2402 146.896 18.5025 147.675 18.794C148.454 19.0661 149.175 19.4257 149.837 19.8726C150.5 20.3196 151.026 20.8929 151.416 21.5926C151.805 22.2728 152 23.1376 152 24.187C152 25.3919 151.669 26.4414 151.006 27.3354C150.344 28.2099 149.428 28.8901 148.259 29.376C147.11 29.8618 145.785 30.1047 144.285 30.1047C143.213 30.1047 142.171 29.9687 141.158 29.6966C140.145 29.4051 139.19 29.0164 138.294 28.5306C137.417 28.0447 136.628 27.4811 135.927 26.8398L137.417 24.0121C138.119 24.6534 138.859 25.1976 139.638 25.6446C140.437 26.0916 141.236 26.4317 142.035 26.6649C142.853 26.8981 143.623 27.0147 144.343 27.0147C145.551 27.0147 146.486 26.7815 147.149 26.3151C147.831 25.8486 148.172 25.1976 148.172 24.3619C148.172 23.6817 147.967 23.1376 147.558 22.7295C147.168 22.3019 146.642 21.9521 145.98 21.68C145.337 21.4079 144.616 21.165 143.817 20.9512C143.038 20.7375 142.249 20.4945 141.45 20.2225C140.671 19.9309 139.95 19.5714 139.288 19.1439C138.645 18.7163 138.119 18.1624 137.71 17.4822C137.32 16.802 137.125 15.9372 137.125 14.8878C137.125 13.7412 137.437 12.75 138.06 11.9143C138.684 11.0592 139.551 10.3985 140.661 9.93205C141.791 9.46563 143.097 9.23242 144.577 9.23242C145.902 9.23242 147.188 9.42676 148.435 9.81545C149.682 10.2041 150.782 10.7094 151.737 11.3313L150.305 14.2173Z" fill="black"/>
<path d="M16.9213 34.64C17.7902 33.1149 19.7309 32.5829 21.256 33.4518C22.7811 34.3207 23.3131 36.2615 22.4442 37.7866L22.4237 37.8222C21.5519 39.3082 19.6529 39.8287 18.1453 38.9949L18.1095 38.9748C16.5844 38.106 16.0524 36.1652 16.9213 34.64ZM21.497 36.158C20.2984 36.2906 19.0815 36.294 17.8683 36.1622C17.8506 36.8104 18.1816 37.4469 18.7843 37.7903C19.6552 38.2865 20.7635 37.9826 21.2597 37.1117C21.4313 36.8105 21.5071 36.4809 21.497 36.158ZM8.00299 28.197C9.75826 28.197 11.1812 29.62 11.1811 31.3753C11.1811 33.1305 9.75809 34.5535 8.00282 34.5534L8.00287 33.1901C8.51318 33.1901 8.97419 32.9794 9.30394 32.6403C8.33895 31.8758 7.47678 31.0183 6.72295 30.0885C6.40284 30.4069 6.20085 30.844 6.18857 31.3283L6.188 31.3751C6.18797 32.3618 6.9753 33.1646 7.95598 33.1895L8.00287 33.1901L8.00282 34.5534L7.96171 34.5531C6.22538 34.5311 4.82463 33.1167 4.82467 31.3751C4.82473 29.6198 6.24771 28.1969 8.00299 28.197ZM31.8292 27.7108C33.5845 27.7109 35.0074 29.1339 35.0073 30.8891L35.0071 30.9302C34.985 32.6666 33.5706 34.0673 31.829 34.0673L31.8291 32.704C32.8314 32.704 33.644 31.8914 33.644 30.8891C33.644 30.3567 33.4148 29.8778 33.0496 29.5458C32.6997 30.0167 32.3283 30.4646 31.9376 30.889H31.8291V31.0057C31.4312 31.4297 31.0138 31.8296 30.5792 32.2049C30.8941 32.5041 31.3163 32.6916 31.7822 32.7034L31.8291 32.704L31.829 34.0673L31.7879 34.067C30.0516 34.0449 28.6508 32.6305 28.6509 30.889C28.6509 29.1337 30.0739 27.7108 31.8292 27.7108ZM9.52665 13.7983C12.7204 8.19238 19.854 6.23696 25.4599 9.43072C31.0659 12.6245 33.0213 19.7581 29.8276 25.3641C26.6338 30.97 19.5002 32.9254 13.8942 29.7316C8.28828 26.5378 6.33286 19.4042 9.52665 13.7983ZM31.9376 30.889C31.9016 30.9281 31.8654 30.967 31.8291 31.0057V30.889H31.9376ZM22.9883 13.7692C19.7784 11.9405 15.6938 13.0601 13.8651 16.27C12.0364 19.4799 13.156 23.5645 16.3659 25.3932C19.5758 27.2219 23.6604 26.1023 25.4891 22.8924C27.3178 19.6825 26.1981 15.5979 22.9883 13.7692ZM3.02982 18.5529C2.08253 18.6217 1.33537 19.412 1.33537 20.3769L1.33599 20.4241C1.36103 21.4123 2.16997 22.2058 3.16425 22.2058V23.5411L3.12337 23.5409C1.39465 23.519 1.52035e-05 22.1108 0 20.3769C0 18.6293 1.41668 17.2126 3.16425 17.2126C4.91182 17.2126 6.3285 18.6293 6.3285 20.3769C6.32848 22.1244 4.91181 23.5411 3.16425 23.5411V22.2058C3.17919 22.2058 3.19408 22.2055 3.20893 22.2051C3.01674 21.0038 2.95501 19.7789 3.02982 18.5529ZM36.2002 17.2126C36.1948 17.2126 36.1894 17.2128 36.1841 17.2128C36.3549 18.3974 36.3991 19.6032 36.3109 20.809C37.2909 20.7528 38.0056 19.9562 38.0285 19.0569L38.029 19.0125L38.0285 18.968C38.0051 18.05 37.2609 17.2387 36.2493 17.2132L36.2002 17.2126ZM7.53641 5.32488C9.29168 5.32494 10.7145 6.74792 10.7145 8.50319C10.7144 10.2585 9.29146 11.6814 7.53618 11.6813C5.78092 11.6813 4.35805 10.2583 4.3581 8.50302C4.35815 6.74774 5.78113 5.32482 7.53641 5.32488ZM31.3626 4.83863C33.1179 4.83868 34.5408 6.26167 34.5408 8.01694L34.5405 8.05805C34.5184 9.79438 33.104 11.1951 31.3625 11.1951C29.6072 11.195 28.1843 9.77204 28.1843 8.01677C28.1844 6.2615 29.6074 4.83858 31.3626 4.83863ZM5.72137 8.50307C5.72136 8.98265 5.90745 9.41871 6.21125 9.74319C6.52638 9.31073 6.85946 8.89718 7.20892 8.50307H5.72137ZM31.3626 6.20195L31.3625 7.67941C31.8546 8.16192 32.3126 8.67127 32.7355 9.20376C33.0108 8.88556 33.1774 8.47068 33.1774 8.01688C33.1775 7.03021 32.3901 6.2274 31.4095 6.20252L31.3626 6.20195H31.3626ZM7.53635 6.6882C6.53402 6.68817 5.72141 7.50068 5.72137 8.50302L7.20892 8.50307C7.66222 7.99185 8.14305 7.51331 8.64776 7.06837C8.35216 6.83903 7.98384 6.69893 7.58319 6.68877L7.53635 6.6882ZM31.3626 6.20195C30.9148 6.20195 30.5051 6.36413 30.1886 6.63286C30.5991 6.96528 30.9905 7.31467 31.3625 7.67941L31.3626 6.20195ZM16.9213 1.60549C17.7902 0.0803725 19.7309 -0.451627 21.256 0.417253C22.7811 1.28614 23.3131 3.22692 22.4442 4.75205C21.5753 6.27716 19.6346 6.80915 18.1095 5.94029C16.5844 5.07139 16.0524 3.13062 16.9213 1.60549ZM20.5811 1.60175C19.7102 1.10562 18.602 1.40944 18.1058 2.28032V2.28038C17.9752 2.50972 17.9 2.75552 17.876 3.00227C19.0695 2.87161 20.281 2.86902 21.4889 3.0004C21.434 2.44945 21.1287 1.93168 20.6215 1.6255L20.5812 1.6018L20.5811 1.60175ZM39.3641 19.0537C39.3423 20.7983 37.9341 22.2058 36.2002 22.2058L36.1593 22.2055C34.4306 22.1834 33.0359 20.7623 33.0359 19.0125C33.0359 17.2489 34.4526 15.8192 36.2002 15.8192C37.9477 15.8192 39.3644 17.2489 39.3644 19.0125L39.3641 19.0537Z" fill="url(#paint0_radial_324_6)"/>
<defs>
<radialGradient id="paint0_radial_324_6" cx="0" cy="0" r="1" gradientTransform="matrix(27.6098 27.196 -27.1769 27.6292 8.36038 3.48784)" gradientUnits="userSpaceOnUse">
<stop stop-color="#FF4D00"/>
<stop offset="1" stop-color="#EEFF00"/>
</radialGradient>
</defs>
</svg>
