<svg width="152" height="40" viewBox="0 0 152 40" fill="none" xmlns="http://www.w3.org/2000/svg">
<path d="M63.148 14.2173C62.4077 13.7509 61.6771 13.3816 60.9562 13.1095C60.2354 12.8375 59.5535 12.6431 58.9106 12.5265C58.2677 12.4099 57.6832 12.3516 57.1572 12.3516C56.1441 12.3516 55.3356 12.5459 54.7316 12.9346C54.1277 13.3233 53.8257 13.8869 53.8257 14.6254C53.8257 15.2862 54.0205 15.8303 54.4102 16.2579C54.8193 16.666 55.3453 17.0061 55.9882 17.2782C56.6506 17.5308 57.3715 17.7737 58.1508 18.0069C58.9496 18.2402 59.7386 18.5025 60.5179 18.794C61.2972 19.0661 62.018 19.4256 62.6804 19.8726C63.3428 20.3196 63.8689 20.8929 64.2585 21.5925C64.6481 22.2727 64.843 23.1376 64.843 24.187C64.843 25.3919 64.5118 26.4414 63.8494 27.3353C63.187 28.2099 62.2713 28.8901 61.1024 29.3759C59.9529 29.8618 58.6281 30.1047 57.128 30.1047C56.0564 30.1047 55.0141 29.9687 54.001 29.6966C52.988 29.4051 52.0333 29.0164 51.1371 28.5305C50.2604 28.0447 49.4714 27.4811 48.77 26.8398L50.2604 24.0121C50.9618 24.6534 51.7021 25.1976 52.4814 25.6446C53.2802 26.0916 54.079 26.4317 54.8777 26.6649C55.696 26.8981 56.4656 27.0147 57.1864 27.0147C58.3943 27.0147 59.3295 26.7815 59.9919 26.315C60.6737 25.8486 61.0147 25.1976 61.0147 24.3619C61.0147 23.6817 60.8101 23.1376 60.401 22.7294C60.0113 22.3019 59.4853 21.9521 58.8229 21.68C58.18 21.4079 57.4592 21.165 56.6604 20.9512C55.8811 20.7374 55.092 20.4945 54.2933 20.2224C53.514 19.9309 52.7931 19.5714 52.1307 19.1438C51.4878 18.7163 50.9618 18.1624 50.5527 17.4822C50.163 16.802 49.9682 15.9372 49.9682 14.8878C49.9682 13.7411 50.2799 12.75 50.9033 11.9143C51.5268 11.0592 52.3937 10.3985 53.5042 9.93205C54.6342 9.46563 55.9395 9.23242 57.4202 9.23242C58.745 9.23242 60.0308 9.42676 61.2777 9.81545C62.5246 10.2041 63.6253 10.7094 64.58 11.3313L63.148 14.2173Z" fill="white"/>
<path d="M78.0248 9.29073C79.5445 9.29073 80.9569 9.55309 82.2623 10.0778C83.5871 10.6025 84.7365 11.341 85.7106 12.2933C86.7042 13.2456 87.4738 14.3533 88.0193 15.6165C88.5843 16.8603 88.8668 18.211 88.8668 19.6686C88.8668 21.1261 88.5843 22.4962 88.0193 23.7789C87.4738 25.0421 86.7042 26.1499 85.7106 27.1021C84.7365 28.0544 83.5871 28.8026 82.2623 29.3468C80.9569 29.8715 79.5445 30.1339 78.0248 30.1339C76.5052 30.1339 75.083 29.8715 73.7582 29.3468C72.4529 28.8026 71.3034 28.0544 70.3098 27.1021C69.3357 26.1499 68.5662 25.0421 68.0012 23.7789C67.4557 22.4962 67.1829 21.1261 67.1829 19.6686C67.1829 18.211 67.4557 16.8506 68.0012 15.5874C68.5662 14.3242 69.3357 13.2261 70.3098 12.2933C71.3034 11.341 72.4529 10.6025 73.7582 10.0778C75.083 9.55309 76.5052 9.29073 78.0248 9.29073ZM78.0541 12.2058C77.041 12.2058 76.0863 12.4002 75.1902 12.7889C74.3135 13.1581 73.5342 13.6828 72.8523 14.363C72.1704 15.0432 71.6346 15.84 71.245 16.7534C70.8748 17.6474 70.6897 18.6191 70.6897 19.6686C70.6897 20.718 70.8846 21.6994 71.2742 22.6128C71.6638 23.5262 72.1996 24.3328 72.8815 25.0324C73.5634 25.7126 74.3427 26.247 75.2194 26.6357C76.1156 27.0244 77.0605 27.2187 78.0541 27.2187C79.0477 27.2187 79.9828 27.0244 80.8595 26.6357C81.7557 26.247 82.535 25.7126 83.1974 25.0324C83.8598 24.3328 84.3761 23.5262 84.7463 22.6128C85.1359 21.6994 85.3307 20.718 85.3307 19.6686C85.3307 18.6191 85.1359 17.6474 84.7463 16.7534C84.3761 15.84 83.8598 15.0432 83.1974 14.363C82.535 13.6828 81.7557 13.1581 80.8595 12.7889C79.9828 12.4002 79.0477 12.2058 78.0541 12.2058Z" fill="white"/>
<path d="M92.5364 9.49478H95.9263L107.762 25.6737L106.885 25.9652V9.49478H110.275V29.9006H106.885L95.0788 13.7509L95.9848 13.4594V29.9006H92.5364V9.49478Z" fill="white"/>
<path d="M118.72 21.5342C118.72 23.3028 119.208 24.6923 120.182 25.7029C121.156 26.7134 122.471 27.2187 124.127 27.2187C125.763 27.2187 127.059 26.7232 128.014 25.732C128.968 24.7214 129.445 23.3222 129.445 21.5342V9.49478H132.894V21.5342C132.894 23.3028 132.543 24.8381 131.842 26.1401C131.14 27.4228 130.127 28.4139 128.803 29.1136C127.497 29.7938 125.939 30.1339 124.127 30.1339C122.295 30.1339 120.717 29.7938 119.393 29.1136C118.068 28.4139 117.045 27.4228 116.324 26.1401C115.623 24.8381 115.272 23.3028 115.272 21.5342V9.49478H118.72V21.5342Z" fill="white"/>
<path d="M150.305 14.2173C149.565 13.7509 148.834 13.3816 148.113 13.1095C147.392 12.8375 146.71 12.6431 146.068 12.5265C145.425 12.4099 144.84 12.3516 144.314 12.3516C143.301 12.3516 142.493 12.5459 141.889 12.9346C141.285 13.3233 140.983 13.8869 140.983 14.6254C140.983 15.2862 141.177 15.8303 141.567 16.2579C141.976 16.666 142.502 17.0061 143.145 17.2782C143.808 17.5308 144.528 17.7737 145.308 18.0069C146.106 18.2402 146.896 18.5025 147.675 18.794C148.454 19.0661 149.175 19.4256 149.837 19.8726C150.5 20.3196 151.026 20.8929 151.415 21.5925C151.805 22.2727 152 23.1376 152 24.187C152 25.3919 151.669 26.4414 151.006 27.3353C150.344 28.2099 149.428 28.8901 148.259 29.3759C147.11 29.8618 145.785 30.1047 144.285 30.1047C143.213 30.1047 142.171 29.9687 141.158 29.6966C140.145 29.4051 139.19 29.0164 138.294 28.5305C137.417 28.0447 136.628 27.4811 135.927 26.8398L137.417 24.0121C138.119 24.6534 138.859 25.1976 139.638 25.6446C140.437 26.0916 141.236 26.4317 142.035 26.6649C142.853 26.8981 143.622 27.0147 144.343 27.0147C145.551 27.0147 146.486 26.7815 147.149 26.315C147.831 25.8486 148.172 25.1976 148.172 24.3619C148.172 23.6817 147.967 23.1376 147.558 22.7294C147.168 22.3019 146.642 21.9521 145.98 21.68C145.337 21.4079 144.616 21.165 143.817 20.9512C143.038 20.7374 142.249 20.4945 141.45 20.2224C140.671 19.9309 139.95 19.5714 139.288 19.1438C138.645 18.7163 138.119 18.1624 137.71 17.4822C137.32 16.802 137.125 15.9372 137.125 14.8878C137.125 13.7411 137.437 12.75 138.06 11.9143C138.684 11.0592 139.551 10.3985 140.661 9.93205C141.791 9.46563 143.096 9.23242 144.577 9.23242C145.902 9.23242 147.188 9.42676 148.435 9.81545C149.682 10.2041 150.782 10.7094 151.737 11.3313L150.305 14.2173Z" fill="white"/>
<path d="M16.9212 34.64C17.7901 33.1149 19.7309 32.5829 21.256 33.4518C22.7811 34.3207 23.3131 36.2614 22.4442 37.7866L22.4236 37.8221C21.5519 39.3081 19.6529 39.8287 18.1453 38.9949L18.1095 38.9748C16.5843 38.1059 16.0523 36.1651 16.9212 34.64ZM21.4969 36.1579C20.2983 36.2905 19.0815 36.2939 17.8683 36.1622C17.8506 36.8103 18.1816 37.4469 18.7843 37.7902C19.6552 38.2864 20.7635 37.9826 21.2597 37.1117C21.4313 36.8104 21.5071 36.4808 21.4969 36.1579ZM8.00298 28.1969C9.75825 28.197 11.1812 29.62 11.1811 31.3752C11.1811 33.1305 9.75808 34.5534 8.00281 34.5534L8.00286 33.1901C8.51317 33.1901 8.97418 32.9793 9.30393 32.6403C8.80215 32.2427 8.32819 31.82 7.88277 31.3751L6.18799 31.3751V31.3751C6.18798 32.3618 6.9753 33.1646 7.95597 33.1895L8.00286 33.1901L8.00281 34.5534L7.9617 34.5531C6.22537 34.531 4.82462 33.1166 4.82467 31.3751C4.82472 29.6198 6.24771 28.1969 8.00298 28.1969ZM31.8292 27.7108C33.5844 27.7108 35.0073 29.1338 35.0073 30.8891L35.007 30.9302C34.985 32.6665 33.5705 34.0673 31.829 34.0672L31.829 32.7039C32.8314 32.7039 33.6439 31.8914 33.644 30.889C33.644 30.3566 33.4148 29.8778 33.0496 29.5458C32.6997 30.0166 32.3283 30.4646 31.9376 30.889H31.829V31.0057C31.4311 31.4296 31.0137 31.8295 30.5791 32.2049C30.8941 32.5041 31.3163 32.6915 31.7822 32.7033L31.829 32.7039L31.829 34.0672L31.7879 34.067C30.0516 34.0449 28.6508 32.6305 28.6509 30.8889C28.6509 29.1337 30.0739 27.7107 31.8292 27.7108ZM6.72294 30.0885C6.39255 30.4171 6.18801 30.8722 6.18799 31.3751L7.88277 31.3751C7.47161 30.9644 7.08479 30.5348 6.72294 30.0885ZM9.52664 13.7983C12.7204 8.19237 19.854 6.23695 25.4599 9.43071C31.0658 12.6245 33.0213 19.7581 29.8275 25.364C26.6337 30.97 19.5001 32.9254 13.8942 29.7316C8.28827 26.5378 6.33285 19.4042 9.52664 13.7983ZM31.9376 30.889C31.9016 30.9281 31.8654 30.9669 31.829 31.0056V30.889H31.9376ZM22.9882 13.7692C19.7784 11.9405 15.6938 13.0601 13.8651 16.27C12.0364 19.4799 13.156 23.5645 16.3659 25.3932C19.5757 27.2219 23.6603 26.1022 25.489 22.8924C27.3178 19.6825 26.1981 15.5979 22.9882 13.7692ZM3.02981 18.5529C2.08252 18.6217 1.33537 19.412 1.33537 20.3769L1.33599 20.424C1.36103 21.4123 2.16997 22.2057 3.16425 22.2057V23.5411L3.12337 23.5408C1.39465 23.5189 1.52035e-05 22.1108 0 20.3769C0 18.6293 1.41668 17.2126 3.16425 17.2126C4.91181 17.2126 6.32849 18.6293 6.32849 20.3769C6.32848 22.1244 4.9118 23.5411 3.16425 23.5411V22.2057C3.17918 22.2057 3.19407 22.2055 3.20892 22.2051C3.01674 21.0038 2.955 19.7789 3.02981 18.5529ZM36.2001 17.2126C36.1948 17.2126 36.1894 17.2127 36.184 17.2128C36.3548 18.3974 36.399 19.6032 36.3109 20.809C37.2909 20.7528 38.0056 19.9561 38.0284 19.0569L38.029 19.0125L38.0284 18.968C38.0051 18.05 37.2608 17.2387 36.2493 17.2132L36.2001 17.2126ZM7.5364 5.32487C9.29167 5.32493 10.7145 6.74791 10.7145 8.50318C10.7144 10.2585 9.29145 11.6814 7.53617 11.6813C5.78091 11.6812 4.35805 10.2583 4.35809 8.50301C4.35815 6.74773 5.78113 5.32482 7.5364 5.32487ZM31.3626 4.83862C33.1179 4.83868 34.5408 6.26166 34.5407 8.01693L34.5404 8.05804C34.5184 9.79437 33.104 11.1951 31.3624 11.1951C29.6071 11.195 28.1842 9.77203 28.1843 8.01676C28.1843 6.26149 29.6073 4.83858 31.3626 4.83862ZM5.72136 8.50306C5.72135 8.98264 5.90744 9.4187 6.21124 9.74318C6.52637 9.31071 6.85945 8.89717 7.20891 8.50306H5.72136ZM31.3625 6.20194L31.3625 7.6794C31.8546 8.16192 32.3126 8.67126 32.7355 9.20375C33.0108 8.88555 33.1774 8.47067 33.1774 8.01687C33.1774 7.03021 32.3901 6.2274 31.4094 6.20251L31.3626 6.20194H31.3625ZM7.53634 6.68819C6.53401 6.68816 5.72141 7.50067 5.72136 8.50301L7.20891 8.50306C7.66221 7.99185 8.14304 7.5133 8.64775 7.06836C8.35215 6.83902 7.98383 6.69892 7.58318 6.68876L7.53634 6.68819ZM31.3625 6.20194C30.9148 6.20194 30.505 6.36412 30.1885 6.63286C30.599 6.96528 30.9905 7.31466 31.3625 7.6794L31.3625 6.20194ZM16.9212 1.60549C17.7901 0.0803724 19.7309 -0.451626 21.256 0.417252C22.7811 1.28614 23.3131 3.22691 22.4442 4.75204C21.5753 6.27716 19.6346 6.80914 18.1095 5.94028C16.5843 5.07139 16.0523 3.13062 16.9212 1.60549ZM20.5811 1.60175C19.7102 1.10562 18.602 1.40944 18.1058 2.28032V2.28037C17.9751 2.50972 17.9 2.75551 17.876 3.00226C19.0695 2.8716 20.281 2.86901 21.4889 3.00039C21.434 2.44945 21.1286 1.93168 20.6215 1.6255L20.5811 1.6018L20.5811 1.60175ZM39.3641 19.0537C39.3422 20.7983 37.934 22.2057 36.2001 22.2057L36.1592 22.2055C34.4305 22.1834 33.0359 20.7623 33.0359 19.0125C33.0359 17.2489 34.4526 15.8192 36.2001 15.8192C37.9477 15.8192 39.3644 17.2489 39.3644 19.0125L39.3641 19.0537Z" fill="url(#paint0_radial_350_2)"/>
<defs>
<radialGradient id="paint0_radial_350_2" cx="0" cy="0" r="1" gradientTransform="matrix(27.6097 27.196 -27.1769 27.6291 8.36037 3.48784)" gradientUnits="userSpaceOnUse">
<stop stop-color="#FF4D00"/>
<stop offset="1" stop-color="#EEFF00"/>
</radialGradient>
</defs>
</svg>
