<svg width="86" height="26" viewBox="0 0 86 26" fill="none" xmlns="http://www.w3.org/2000/svg">
<path d="M75.7848 18.361L81.1331 6.46954H83.4489L78.266 18.361H75.7848ZM77.9351 14.5381L74.002 6.46954H76.8875L79.9201 13.2515L77.9351 14.5381Z" fill="#006B52"/>
<path d="M65.1696 14.5013V8.71181H63.8096V6.43277H65.1696V3.63911C65.1696 2.58536 65.4698 1.72765 66.0702 1.06599C66.6829 0.392085 67.5651 0.05513 68.7169 0.05513C69.0599 0.05513 69.4398 0.110269 69.8564 0.220545C70.2852 0.318568 70.6589 0.483981 70.9775 0.716786L69.8931 2.5731C69.7706 2.41381 69.6236 2.30966 69.452 2.26065C69.2927 2.19939 69.1396 2.16876 68.9925 2.16876C68.625 2.16876 68.3248 2.29129 68.092 2.53634C67.8592 2.7814 67.7428 3.1735 67.7428 3.71262V6.43277H70.1688V8.71181H67.7428V14.5013H65.1696Z" fill="#006B52"/>
<path d="M56.4174 6.46953H58.9906V14.5013H56.4174V6.46953ZM56.3623 3.62073C56.3623 3.24089 56.5093 2.92844 56.8034 2.68338C57.1097 2.43833 57.4344 2.3158 57.7775 2.3158C58.1206 2.3158 58.433 2.43833 58.7149 2.68338C59.0089 2.92844 59.156 3.24089 59.156 3.62073C59.156 4.00057 59.0089 4.31302 58.7149 4.55808C58.433 4.79089 58.1206 4.90729 57.7775 4.90729C57.4344 4.90729 57.1097 4.79089 56.8034 4.55808C56.5093 4.31302 56.3623 4.00057 56.3623 3.62073Z" fill="#006B52"/>
<path d="M43.6279 14.5013V0H46.201V14.5013H43.6279ZM48.2411 9.04265L51.8803 14.5013H48.8844L46.5502 10.513L48.2411 9.04265ZM45.4291 12.2774L45.1718 9.83296L50.0239 6.26736L51.5862 7.64582L45.4291 12.2774Z" fill="#006B52"/>
<path d="M35.6484 0H38.2215V14.5013H35.6484V0Z" fill="#006B52"/>
<path d="M24.9823 14.7219C24.2349 14.7219 23.5548 14.5748 22.9422 14.2808C22.3418 13.9744 21.8639 13.5088 21.5086 12.8839C21.1533 12.259 20.9756 11.4626 20.9756 10.4946C20.9756 9.5879 21.1594 8.80371 21.527 8.14205C21.8946 7.4804 22.3785 6.9719 22.9789 6.61657C23.5793 6.24898 24.2165 6.06519 24.8904 6.06519C25.6868 6.06519 26.2872 6.19997 26.6916 6.46953C27.1082 6.72684 27.4513 7.01479 27.7208 7.33336L27.6105 7.64581L27.8495 6.46953H30.2388V14.5013H27.6657V12.7553L27.8678 13.3067C27.8433 13.3067 27.7698 13.3802 27.6473 13.5272C27.5248 13.662 27.341 13.8274 27.0959 14.0235C26.8631 14.2072 26.569 14.3665 26.2137 14.5013C25.8706 14.6484 25.4602 14.7219 24.9823 14.7219ZM25.7175 12.6266C26.1831 12.6266 26.5752 12.5286 26.8937 12.3326C27.2123 12.1243 27.4696 11.8179 27.6657 11.4136V9.44699C27.5186 9.0549 27.2613 8.74245 26.8937 8.50964C26.5384 8.27684 26.1157 8.16044 25.6256 8.16044C25.258 8.16044 24.9149 8.25846 24.5963 8.4545C24.29 8.6383 24.0449 8.89561 23.8611 9.22644C23.6774 9.55727 23.5855 9.93711 23.5855 10.366C23.5855 10.7948 23.6835 11.1808 23.8795 11.5239C24.0756 11.8669 24.3329 12.1365 24.6515 12.3326C24.9823 12.5286 25.3376 12.6266 25.7175 12.6266Z" fill="#006B52"/>
<path d="M0.950195 1.06599H4.07469L6.96025 9.55726L6.53752 9.37347L9.0555 3.10611L10.2869 6.7636L6.39049 15.1262L0.950195 1.06599ZM7.73218 1.06599H10.3788L13.7055 9.28157L13.2276 9.20805L15.7088 1.06599H18.576L13.3563 15.0895L7.73218 1.06599Z" fill="#006B52"/>
<path d="M1 25C1 24.8481 1 24.4661 1.07756 23.892C1.15092 23.3489 1.78026 22.8554 2.67685 22.2812C3.21929 21.9339 4.11634 21.7831 6.33961 21.6277C8.56288 21.4724 12.1305 21.3965 21.3361 21.6991C30.5418 22.0017 45.2774 22.6851 56.7463 22.7714C68.2152 22.8577 75.9708 22.3261 80.0437 21.9384C84.1165 21.5506 84.2716 21.3228 84.4314 20.858" stroke="#006B52" stroke-width="2" stroke-linecap="round"/>
</svg>
